<svg width="92" height="92" viewBox="0 0 92 92" fill="none" xmlns="http://www.w3.org/2000/svg">
<path opacity="0.5" d="M53.4686 50.2878H38.5311C37.7617 50.2878 37.1372 49.6633 37.1372 48.8938C37.1372 48.1244 37.7617 47.4999 38.5311 47.4999H52.0747V35.8744H38.5311C37.7617 35.8744 37.1372 35.2499 37.1372 34.4805C37.1372 33.711 37.7617 33.0865 38.5311 33.0865H53.4686C54.2381 33.0865 54.8625 33.711 54.8625 34.4805V48.8938C54.8625 49.6633 54.2408 50.2878 53.4686 50.2878Z" fill="#E90F0F"/>
<path d="M38.5315 30.6305C37.7621 30.6305 37.1376 30.006 37.1376 29.2365C37.1376 23.3931 32.3842 18.6426 26.5436 18.6426C22.0886 18.6426 18.0796 21.4584 16.5714 25.6485C16.3121 26.3678 15.5148 26.7498 14.7871 26.4849C14.0623 26.2256 13.6887 25.4255 13.948 24.7007C15.8521 19.4093 20.9149 15.8519 26.5408 15.8519C33.9204 15.8519 39.9227 21.8542 39.9227 29.2338C39.9255 30.006 39.301 30.6305 38.5315 30.6305Z" fill="black"/>
<path d="M38.5311 66.4993C37.7617 66.4993 37.1372 65.8748 37.1372 65.1053V29.2365C37.1372 28.467 37.7617 27.8425 38.5311 27.8425C39.3006 27.8425 39.9251 28.467 39.9251 29.2365V65.1053C39.9251 65.8748 39.3006 66.4993 38.5311 66.4993Z" fill="black"/>
<path d="M2.35575 60.6169C2.19126 60.6169 2.02399 60.589 1.8595 60.5249C1.14023 60.2517 0.777807 59.446 1.05102 58.7267L13.7637 25.2666C14.037 24.5473 14.8399 24.1849 15.5619 24.4581C16.2812 24.7313 16.6436 25.537 16.3704 26.2563L3.66047 59.7164C3.4486 60.274 2.9189 60.6169 2.35575 60.6169Z" fill="black"/>
<path d="M19.9612 85.0666C8.95467 85.0666 0 76.1119 0 65.1054C0 54.0988 8.95467 45.1414 19.9612 45.1414C30.9678 45.1414 39.9252 54.096 39.9252 65.1054C39.9252 76.1147 30.9678 85.0666 19.9612 85.0666ZM19.9612 47.9292C10.4936 47.9292 2.78788 55.6349 2.78788 65.1054C2.78788 74.573 10.4936 82.2787 19.9612 82.2787C29.4316 82.2787 37.1373 74.573 37.1373 65.1054C37.1373 55.6349 29.4316 47.9292 19.9612 47.9292Z" fill="#E90F0F"/>
<path d="M35.5564 15.2302C34.787 15.2302 34.1625 14.6057 34.1625 13.8362C34.1625 11.5669 32.3141 9.71854 30.0448 9.71854C28.3135 9.71854 26.7551 10.8142 26.1697 12.4423C25.9104 13.1644 25.1103 13.5463 24.3854 13.2815C23.6606 13.0222 23.2842 12.2221 23.5463 11.4972C24.5304 8.76788 27.1398 6.93066 30.0448 6.93066C33.8531 6.93066 36.9504 10.028 36.9504 13.8362C36.9504 14.6085 36.3259 15.2302 35.5564 15.2302Z" fill="black"/>
<path d="M35.5565 21.2074C34.7871 21.2074 34.1626 20.5829 34.1626 19.8134V13.8362C34.1626 13.0667 34.7871 12.4423 35.5565 12.4423C36.326 12.4423 36.9505 13.0667 36.9505 13.8362V19.8134C36.9505 20.5857 36.326 21.2074 35.5565 21.2074Z" fill="black"/>
<path d="M22.8997 18.559C22.7352 18.559 22.5679 18.5311 22.4035 18.467C21.6842 18.1937 21.3218 17.3881 21.595 16.6688L23.4656 11.7426C23.7388 11.0233 24.5418 10.6581 25.2638 10.9341C25.9831 11.2073 26.3455 12.013 26.0723 12.7323L24.2016 17.6613C23.9898 18.2188 23.4628 18.559 22.8997 18.559Z" fill="black"/>
<path d="M53.4686 30.6304C52.6992 30.6304 52.0747 30.0059 52.0747 29.2364C52.0747 21.8569 58.077 15.8546 65.4565 15.8546C71.0852 15.8546 76.1452 19.4092 78.0494 24.7033C78.3114 25.4282 77.9351 26.2255 77.2102 26.4876C76.4798 26.7524 75.6852 26.3705 75.426 25.6484C73.9177 21.4583 69.9088 18.6425 65.4537 18.6425C59.6103 18.6425 54.8598 23.3958 54.8598 29.2364C54.8626 30.0059 54.2409 30.6304 53.4686 30.6304Z" fill="black"/>
<path d="M53.4686 66.4993C52.6992 66.4993 52.0747 65.8748 52.0747 65.1053V29.2365C52.0747 28.467 52.6992 27.8425 53.4686 27.8425C54.2381 27.8425 54.8626 28.467 54.8626 29.2365V65.1053C54.8626 65.8748 54.2409 66.4993 53.4686 66.4993Z" fill="black"/>
<path d="M89.6443 60.6167C89.0811 60.6167 88.5515 60.2738 88.3424 59.719L75.6296 26.2589C75.3564 25.5396 75.7188 24.7339 76.4381 24.4607C77.163 24.1847 77.9631 24.5499 78.2363 25.2692L90.949 58.7293C91.2222 59.4486 90.8598 60.2543 90.1405 60.5275C89.9761 60.5861 89.8088 60.6167 89.6443 60.6167Z" fill="black"/>
<path d="M72.0387 85.0665C61.0322 85.0665 52.0747 76.1118 52.0747 65.1052C52.0747 54.0987 61.0294 45.1412 72.0387 45.1412C83.048 45.1412 91.9999 54.0987 91.9999 65.1052C91.9999 76.1118 83.0453 85.0665 72.0387 85.0665ZM72.0387 47.9291C62.5683 47.9291 54.8626 55.6348 54.8626 65.1052C54.8626 74.5729 62.5683 82.2786 72.0387 82.2786C81.5063 82.2786 89.212 74.5729 89.212 65.1052C89.212 55.6348 81.5063 47.9291 72.0387 47.9291Z" fill="#E90F0F"/>
<path d="M56.4433 15.2302C55.6738 15.2302 55.0493 14.6057 55.0493 13.8362C55.0493 10.028 58.1466 6.93066 61.9549 6.93066C64.8599 6.93066 67.4721 8.76509 68.4534 11.4972C68.7155 12.2221 68.3391 13.0194 67.6143 13.2815C66.8811 13.5435 66.0921 13.1644 65.83 12.4423C65.2446 10.8142 63.6862 9.71854 61.9521 9.71854C59.6828 9.71854 57.8344 11.5669 57.8344 13.8362C57.8372 14.6085 57.2127 15.2302 56.4433 15.2302Z" fill="black"/>
<path d="M56.4433 21.2074C55.6738 21.2074 55.0493 20.5829 55.0493 19.8134V13.8362C55.0493 13.0667 55.6738 12.4423 56.4433 12.4423C57.2127 12.4423 57.8372 13.0667 57.8372 13.8362V19.8134C57.8372 20.5857 57.2127 21.2074 56.4433 21.2074Z" fill="black"/>
<path d="M69.1001 18.5589C68.5369 18.5589 68.0072 18.216 67.7981 17.6612L65.9275 12.735C65.6543 12.0157 66.0167 11.21 66.736 10.9368C67.4608 10.658 68.2609 11.0232 68.5341 11.7453L70.4048 16.6715C70.678 17.3907 70.3156 18.1964 69.5963 18.4696C69.4318 18.531 69.2646 18.5589 69.1001 18.5589Z" fill="black"/>
</svg>
