<svg width="92" height="92" viewBox="0 0 92 92" fill="none" xmlns="http://www.w3.org/2000/svg">
<path d="M90.2031 67.9938C89.3406 65.9094 87.7594 64.8313 85.5312 64.8313C84.7406 64.8313 83.8062 64.975 82.8 65.2625L67.4906 70.5813C67.4906 70.5094 67.4906 70.5094 67.4906 70.4375C67.4906 70.3657 67.4906 70.2938 67.4906 70.2219C67.4906 70.0782 67.4906 70.0063 67.4906 69.8625C67.4906 69.7907 67.4906 69.7188 67.4906 69.7188V69.6469V69.575C67.4906 69.4313 67.4187 69.2157 67.4187 69.0719C67.4187 69.0719 67.4187 69.0719 67.4187 69C66.7719 66.1969 64.1844 64.1125 61.1656 64.1125H49.0187C43.4125 56.9969 30.4031 56.925 29.8281 56.925H20.4844V53.475H1.4375V85.1719H20.4844V82.1532L44.0594 89.6282C44.2031 89.7 47.725 90.7063 51.75 90.7063C54.1937 90.7063 56.35 90.3469 58.2187 89.5563C62.9625 87.6157 82.0094 77.4094 87.7594 74.3188C89.3406 73.3844 91.425 70.9407 90.2031 67.9938ZM17.6094 82.225H4.3125V56.2782H17.6094V56.7813V81.075V82.225ZM86.3219 71.7313C80.6437 74.8219 61.6687 84.8844 57.0687 86.825C55.6312 87.4 53.8344 87.7594 51.75 87.7594C48.0844 87.7594 44.85 86.825 44.85 86.825L20.4125 79.1344V59.6563H29.7562C29.9 59.6563 42.55 59.7282 47.0062 66.2688L47.4375 66.9157H61.0219C62.8187 66.9157 64.3281 68.2094 64.5437 69.9344V70.0063C64.5437 70.15 64.5437 70.2219 64.5437 70.3657C64.5437 70.5094 64.5437 70.6532 64.4719 70.7969C64.4719 70.8688 64.4719 70.9407 64.4719 71.0125C64.4719 71.1563 64.4 71.3 64.3281 71.4438C64.3281 71.5157 64.3281 71.5875 64.2562 71.5875C64.1844 71.8032 64.1125 71.9469 63.9687 72.0907C63.3937 72.9532 62.3875 73.5282 61.2375 73.5282H42.55V76.4032H61.2375C63.1781 76.4032 64.975 75.4688 66.125 74.0313L83.5906 67.9938C84.3094 67.7782 84.9562 67.7063 85.5312 67.7063C86.6094 67.7063 87.1125 68.0657 87.5437 69.0719C88.1187 70.4375 86.7531 71.5157 86.3219 71.7313Z" fill="black"/>
<path opacity="0.5" d="M71.2282 39.3157C71.8032 39.5313 72.4501 39.675 73.097 39.675C75.397 39.675 77.4813 38.2375 78.272 36.0813C79.2782 33.2063 77.8407 30.1157 74.9657 29.0375C74.3907 28.8219 73.7438 28.6782 73.097 28.6782C70.797 28.6782 68.7126 30.1157 67.922 32.2719C67.4188 33.6375 67.4907 35.1469 68.1376 36.4407C68.7126 37.8063 69.7907 38.8125 71.2282 39.3157ZM70.6532 33.2782C71.0126 32.2719 72.0188 31.5532 73.097 31.5532C73.3845 31.5532 73.672 31.625 73.9595 31.6969C75.3251 32.2 76.0438 33.7094 75.5407 35.0032C75.1813 36.0094 74.1751 36.7282 73.097 36.7282C72.8095 36.7282 72.522 36.6563 72.2345 36.5844C71.5876 36.3688 71.0845 35.8657 70.797 35.2188C70.5095 34.5719 70.3657 33.925 70.6532 33.2782Z" fill="#E90F0F"/>
<path d="M28.3906 25.4438L31.05 24.2219L32.2719 26.8813L38.4531 29.1094L41.1125 27.8875L42.3344 30.5469L48.0125 32.6313C48.4438 39.3875 52.8281 45.5688 59.5844 48.0125C61.525 48.7313 63.5375 49.0906 65.6219 49.0906C73.025 49.0906 79.6375 44.4188 82.1531 37.5188C85.4594 28.3906 80.7875 18.2563 71.6594 14.95C69.7187 14.2313 67.7063 13.8719 65.6219 13.8719C60.7344 13.8719 56.2062 15.9563 52.9 19.3344L27.025 9.91876L18.6875 12.7219L21.9938 23.1438L28.3906 25.4438ZM65.6938 16.7469C67.4188 16.7469 69.0719 17.0344 70.725 17.6094C78.3438 20.4125 82.2969 28.8938 79.5656 36.5125C77.4812 42.3344 71.875 46.2156 65.6938 46.2156C63.9688 46.2156 62.3156 45.9281 60.6625 45.3531C53.0438 42.55 49.0906 34.0688 51.8219 26.45C53.9781 20.7 59.5844 16.7469 65.6938 16.7469ZM51.1031 21.7063C50.3125 22.8563 49.6656 24.15 49.1625 25.5156C48.6594 26.8813 48.3719 28.2469 48.2281 29.6844L44.5625 28.3188L42.6219 24.0781L38.3813 26.0188L34.4281 24.5813L32.4875 20.3406L28.2469 22.2813L24.4375 20.9875L22.8562 16.0281L45.425 24.2219L46.4312 21.4906L24.9406 13.7281L27.0969 13.0094L51.1031 21.7063Z" fill="#E90F0F"/>
</svg>
