<svg width="92" height="92" viewBox="0 0 92 92" fill="none" xmlns="http://www.w3.org/2000/svg">
<path d="M30.1875 90.5625H2.15625V79.0625H30.1875V90.5625ZM5.03125 87.6875H27.3125V81.9375H5.03125V87.6875Z" fill="black"/>
<path d="M59.6562 90.5625H31.625V79.0625H59.6562V90.5625ZM34.5 87.6875H56.7812V81.9375H34.5V87.6875Z" fill="black"/>
<path d="M89.125 90.5625H61.0938V79.0625H89.125V90.5625ZM63.9688 87.6875H86.25V81.9375H63.9688V87.6875Z" fill="black"/>
<path d="M44.5625 77.625H16.5312V66.125H44.5625V77.625ZM19.4062 74.75H41.6875V69H19.4062V74.75Z" fill="black"/>
<path d="M74.0312 77.625H46V66.125H74.0312V77.625ZM48.875 74.75H71.1562V69H48.875V74.75Z" fill="black"/>
<path d="M89.125 77.625H75.4688V66.125H89.125V69H78.3438V74.75H89.125V77.625Z" fill="black"/>
<path d="M15.0938 77.625H2.15625V74.75H12.2188V69H2.15625V66.125H15.0938V77.625Z" fill="black"/>
<path d="M30.1875 64.6875H2.15625V53.1875H30.1875V64.6875ZM5.03125 61.8125H27.3125V56.0625H5.03125V61.8125Z" fill="black"/>
<path d="M59.6562 64.6875H31.625V53.1875H59.6562V64.6875ZM34.5 61.8125H56.7812V56.0625H34.5V61.8125Z" fill="black"/>
<path d="M89.125 64.6875H61.0938V53.1875H89.125V64.6875ZM63.9688 61.8125H86.25V56.0625H63.9688V61.8125Z" fill="black"/>
<path d="M44.5625 51.75H16.5312V40.25H44.5625V51.75ZM19.4062 48.875H41.6875V43.125H19.4062V48.875Z" fill="black"/>
<path d="M74.0312 51.75H46V40.25H74.0312V51.75ZM48.875 48.875H71.1562V43.125H48.875V48.875Z" fill="black"/>
<path d="M89.125 51.75H75.4688V40.25H89.125V43.125H78.3438V48.875H89.125V51.75Z" fill="black"/>
<path d="M15.0938 51.75H2.15625V48.875H12.2188V43.125H2.15625V40.25H15.0938V51.75Z" fill="black"/>
<path d="M30.1875 38.8125H2.15625V27.3125H30.1875V38.8125ZM5.03125 35.9375H27.3125V30.1875H5.03125V35.9375Z" fill="black"/>
<path d="M59.6562 38.8125H31.625V27.3125H59.6562V38.8125ZM34.5 35.9375H56.7812V30.1875H34.5V35.9375Z" fill="black"/>
<g opacity="0.5">
<path opacity="0.3" d="M89.125 35.9375H62.5312V38.8125H89.125V35.9375Z" fill="#E90F0F"/>
</g>
<path d="M15.0938 25.875H2.15625V23H12.2188V17.25H2.15625V14.375H15.0938V25.875Z" fill="black"/>
<path d="M64.6157 21.9938L60.6626 11.2125L86.9688 1.65314L90.922 12.4344L64.6157 21.9938ZM64.4001 12.8656L66.3407 18.2563L87.2563 10.6375L85.3157 5.24689L64.4001 12.8656Z" fill="#E90F0F"/>
</svg>
