<svg width="92" height="92" viewBox="0 0 92 92" fill="none" xmlns="http://www.w3.org/2000/svg">
<path d="M53.4687 50.2878H38.5313C37.7618 50.2878 37.1373 49.6633 37.1373 48.8938C37.1373 48.1244 37.7618 47.4999 38.5313 47.4999H52.0748V35.8744H38.5313C37.7618 35.8744 37.1373 35.2499 37.1373 34.4805C37.1373 33.711 37.7618 33.0865 38.5313 33.0865H53.4687C54.2382 33.0865 54.8627 33.711 54.8627 34.4805V48.8938C54.8627 49.6633 54.241 50.2878 53.4687 50.2878Z" fill="#D3D3D3"/>
<ellipse cx="19.0256" cy="34.3287" rx="6" ry="15.5782" transform="rotate(17.6715 19.0256 34.3287)" fill="white"/>
<path d="M38.5314 30.6305C37.7619 30.6305 37.1375 30.006 37.1375 29.2365C37.1375 23.3931 32.3841 18.6426 26.5435 18.6426C22.0885 18.6426 18.0795 21.4584 16.5713 25.6485C16.312 26.3678 15.5147 26.7498 14.787 26.4849C14.0622 26.2256 13.6886 25.4255 13.9479 24.7007C15.852 19.4093 20.9148 15.8519 26.5407 15.8519C33.9202 15.8519 39.9225 21.8542 39.9225 29.2338C39.9253 30.006 39.3008 30.6305 38.5314 30.6305Z" fill="#6F6F6F"/>
<path d="M38.5313 66.4993C37.7618 66.4993 37.1373 65.8748 37.1373 65.1053V29.2365C37.1373 28.467 37.7618 27.8425 38.5313 27.8425C39.3007 27.8425 39.9252 28.467 39.9252 29.2365V65.1053C39.9252 65.8748 39.3007 66.4993 38.5313 66.4993Z" fill="#6F6F6F"/>
<path d="M2.35587 60.6169C2.19138 60.6169 2.02411 60.589 1.85963 60.5249C1.14035 60.2517 0.77793 59.446 1.05114 58.7267L13.7639 25.2666C14.0371 24.5473 14.84 24.1849 15.5621 24.4581C16.2813 24.7313 16.6438 25.537 16.3705 26.2563L3.6606 59.7164C3.44872 60.274 2.91902 60.6169 2.35587 60.6169Z" fill="#6F6F6F"/>
<path d="M35.5566 15.2302C34.7872 15.2302 34.1627 14.6057 34.1627 13.8362C34.1627 11.5669 32.3143 9.71854 30.045 9.71854C28.3137 9.71854 26.7553 10.8142 26.1698 12.4423C25.9106 13.1644 25.1105 13.5463 24.3856 13.2815C23.6608 13.0222 23.2844 12.2221 23.5465 11.4972C24.5306 8.76788 27.14 6.93066 30.045 6.93066C33.8532 6.93066 36.9506 10.028 36.9506 13.8362C36.9506 14.6085 36.3261 15.2302 35.5566 15.2302Z" fill="#6F6F6F"/>
<path d="M35.5566 21.2074C34.7871 21.2074 34.1627 20.5829 34.1627 19.8134V13.8362C34.1627 13.0667 34.7871 12.4423 35.5566 12.4423C36.3261 12.4423 36.9505 13.0667 36.9505 13.8362V19.8134C36.9505 20.5857 36.3261 21.2074 35.5566 21.2074Z" fill="#6F6F6F"/>
<path d="M22.8997 18.559C22.7352 18.559 22.5679 18.5311 22.4035 18.467C21.6842 18.1937 21.3218 17.3881 21.595 16.6688L23.4656 11.7426C23.7388 11.0233 24.5418 10.6581 25.2638 10.9341C25.9831 11.2073 26.3455 12.013 26.0723 12.7323L24.2016 17.6613C23.9898 18.2188 23.4628 18.559 22.8997 18.559Z" fill="#6F6F6F"/>
<path d="M53.4688 30.6304C52.6994 30.6304 52.0749 30.0059 52.0749 29.2364C52.0749 21.8569 58.0772 15.8546 65.4567 15.8546C71.0854 15.8546 76.1454 19.4092 78.0496 24.7033C78.3116 25.4282 77.9352 26.2255 77.2104 26.4876C76.48 26.7524 75.6854 26.3705 75.4262 25.6484C73.9179 21.4583 69.9089 18.6425 65.4539 18.6425C59.6105 18.6425 54.86 23.3958 54.86 29.2364C54.8628 30.0059 54.2411 30.6304 53.4688 30.6304Z" fill="#6F6F6F"/>
<path d="M53.4688 66.4993C52.6994 66.4993 52.0749 65.8748 52.0749 65.1053V29.2365C52.0749 28.467 52.6994 27.8425 53.4688 27.8425C54.2383 27.8425 54.8628 28.467 54.8628 29.2365V65.1053C54.8628 65.8748 54.2411 66.4993 53.4688 66.4993Z" fill="#6F6F6F"/>
<path d="M89.6443 60.6167C89.0811 60.6167 88.5515 60.2738 88.3424 59.719L75.6296 26.2589C75.3564 25.5396 75.7188 24.7339 76.4381 24.4607C77.163 24.1847 77.9631 24.5499 78.2363 25.2692L90.949 58.7293C91.2222 59.4486 90.8598 60.2543 90.1405 60.5275C89.9761 60.5861 89.8088 60.6167 89.6443 60.6167Z" fill="#6F6F6F"/>
<path d="M56.4435 15.2302C55.674 15.2302 55.0496 14.6057 55.0496 13.8362C55.0496 10.028 58.1469 6.93066 61.9551 6.93066C64.8601 6.93066 67.4723 8.76509 68.4537 11.4972C68.7157 12.2221 68.3394 13.0194 67.6145 13.2815C66.8813 13.5435 66.0923 13.1644 65.8303 12.4423C65.2448 10.8142 63.6864 9.71854 61.9523 9.71854C59.683 9.71854 57.8347 11.5669 57.8347 13.8362C57.8374 14.6085 57.213 15.2302 56.4435 15.2302Z" fill="#6F6F6F"/>
<path d="M56.4435 21.2074C55.674 21.2074 55.0496 20.5829 55.0496 19.8134V13.8362C55.0496 13.0667 55.674 12.4423 56.4435 12.4423C57.213 12.4423 57.8374 13.0667 57.8374 13.8362V19.8134C57.8374 20.5857 57.213 21.2074 56.4435 21.2074Z" fill="#6F6F6F"/>
<path d="M69.1005 18.5589C68.5373 18.5589 68.0076 18.216 67.7985 17.6612L65.9279 12.735C65.6546 12.0157 66.0171 11.21 66.7363 10.9368C67.4612 10.658 68.2613 11.0232 68.5345 11.7453L70.4052 16.6715C70.6784 17.3907 70.316 18.1964 69.5967 18.4696C69.4322 18.531 69.2649 18.5589 69.1005 18.5589Z" fill="#6F6F6F"/>
<path d="M19.9612 85.0666C8.95467 85.0666 0 76.1119 0 65.1054C0 54.0988 8.95467 45.1414 19.9612 45.1414C30.9678 45.1414 39.9252 54.096 39.9252 65.1054C39.9252 76.1147 30.9678 85.0666 19.9612 85.0666ZM19.9612 47.9292C10.4936 47.9292 2.78788 55.6349 2.78788 65.1054C2.78788 74.573 10.4936 82.2787 19.9612 82.2787C29.4316 82.2787 37.1373 74.573 37.1373 65.1054C37.1373 55.6349 29.4316 47.9292 19.9612 47.9292Z" fill="#313131"/>
<path d="M72.0388 85.0666C61.0323 85.0666 52.0748 76.1119 52.0748 65.1054C52.0748 54.0988 61.0295 45.1414 72.0388 45.1414C83.0482 45.1414 92 54.0988 92 65.1054C92 76.1119 83.0454 85.0666 72.0388 85.0666ZM72.0388 47.9292C62.5684 47.9292 54.8627 55.6349 54.8627 65.1054C54.8627 74.573 62.5684 82.2787 72.0388 82.2787C81.5065 82.2787 89.2122 74.573 89.2122 65.1054C89.2122 55.6349 81.5065 47.9292 72.0388 47.9292Z" fill="#313131"/>
</svg>
