<svg width="93" height="93" viewBox="0 0 93 93" fill="none" xmlns="http://www.w3.org/2000/svg">
<ellipse cx="32.4791" cy="44.2118" rx="23.394" ry="17.5" transform="rotate(-52.3259 32.4791 44.2118)" fill="white"/>
<path d="M46.5 79.4133C60.668 79.4133 74.9086 77.0156 88.4227 72.2929L89.3672 71.9297V62.557L84.2812 61.1039V54.9281C84.2812 40.3969 75.9258 27.1734 62.8477 20.8523V19.3265C62.8477 16.4929 60.5953 14.2406 57.7617 14.2406H47.9531V11.3344H45.0469V14.2406H35.2383C32.4047 14.2406 30.1523 16.4929 30.1523 19.3265V20.8523C17.0742 27.1734 8.71875 40.4695 8.71875 54.9281V61.1039L3.63281 62.557V71.9297L4.57734 72.2929C18.0914 77.0883 32.332 79.4133 46.5 79.4133ZM6.53906 64.8093L11.625 63.3562V54.9281C11.625 41.9953 18.818 30.1523 30.1523 24.1219V37.4906H33.0586V19.3265C33.0586 18.0914 34.0031 17.1469 35.2383 17.1469H45.0469V47.6625H47.9531V17.1469H57.7617C58.9969 17.1469 59.9414 18.0914 59.9414 19.3265V37.4906H62.8477V24.1219C74.182 30.1523 81.375 41.9953 81.375 54.9281V63.2836L86.4609 64.7367V69.8953C60.668 78.6867 32.332 78.6867 6.53906 69.8953V64.8093Z" fill="#313131"/>
<path d="M71.9297 60.7406H21.0703V63.6469H71.9297V60.7406Z" fill="#C2C2C2"/>
<path d="M5 77.5C39.822 86.9552 57.667 85.6673 88 77.5" stroke="#C2C2C2" stroke-width="3"/>
</svg>
