<svg width="92" height="92" viewBox="0 0 92 92" fill="none" xmlns="http://www.w3.org/2000/svg">
<circle cx="46" cy="46" r="45" fill="white"/>
<path d="M46 91C70.8182 91 91 70.8182 91 46C91 21.1818 70.8182 1 46 1C21.1818 1 1 21.1818 1 46C1 70.8182 21.1818 91 46 91ZM46 4.63636C68.8182 4.63636 87.3636 23.1818 87.3636 46C87.3636 68.8182 68.8182 87.3636 46 87.3636C23.1818 87.3636 4.63636 68.8182 4.63636 46C4.63636 23.1818 23.1818 4.63636 46 4.63636Z" fill="#C2C2C2"/>
<path d="M46 81.5781C65.6219 81.5781 81.5781 65.6219 81.5781 46C81.5781 26.3781 65.6219 10.4219 46 10.4219C26.3781 10.4219 10.4219 26.3781 10.4219 46C10.4219 65.6219 26.3781 81.5781 46 81.5781ZM46 13.2969C64.0406 13.2969 78.7031 27.9594 78.7031 46C78.7031 64.0406 64.0406 78.7031 46 78.7031C27.9594 78.7031 13.2969 64.0406 13.2969 46C13.2969 27.9594 27.9594 13.2969 46 13.2969Z" fill="#313131"/>
<path d="M47.4375 17.5375H44.5625V19.8375H47.4375V17.5375Z" fill="#C2C2C2"/>
<path d="M74.4625 44.5625H72.1625V47.4375H74.4625V44.5625Z" fill="#C2C2C2"/>
<path d="M47.4375 72.1625H44.5625V74.4625H47.4375V72.1625Z" fill="#C2C2C2"/>
<path d="M19.8375 44.5625H17.5375V47.4375H19.8375V44.5625Z" fill="#C2C2C2"/>
<path d="M44.5625 51.6781H47.4375V47.4375H60.8062V44.5625H47.4375V24.0781H44.5625V44.5625H40.3219V47.4375H44.5625V51.6781Z" fill="#313131"/>
</svg>
