<svg width="90" height="89" viewBox="0 0 90 89" fill="none" xmlns="http://www.w3.org/2000/svg">
<path d="M88 58L88 82L70 82L49.5 82L31 82L19 82C12.3726 82 7 76.6274 7 70C7 63.3726 12.3726 58 19 58L31 58L49.5 58L70 58L88 58Z" fill="white" stroke="#C2C2C2" stroke-width="3"/>
<path d="M72.574 25.3578L84.574 46.1424L68.9856 55.1424L51.232 65.3924L35.2106 74.6424L24.8183 80.6424C19.0788 83.9561 11.7397 81.9896 8.42595 76.2501C5.11224 70.5105 7.07875 63.1715 12.8183 59.8578L23.2106 53.8578L39.232 44.6078L56.9856 34.3578L72.574 25.3578Z" fill="white" stroke="#313131" stroke-width="3"/>
<path d="M43.3577 3.92599L63.7966 15.7264L54.7966 31.3149L44.5466 49.0684L35.2966 65.0899L29.1968 75.655C25.9382 81.2991 18.7212 83.2329 13.0772 79.9743C7.43311 76.7157 5.49931 69.4986 8.7579 63.8546L14.8577 53.2894L24.1077 37.268L34.3577 19.5144L43.3577 3.92599Z" fill="white" stroke="#C2C2C2" stroke-width="3"/>
<path d="M6.5 1.5H30.5V19.5V40V58.5V70.5C30.5 77.1274 25.1274 82.5 18.5 82.5C11.8726 82.5 6.5 77.1274 6.5 70.5V58.5V40V19.5V1.5Z" fill="white" stroke="#313131" stroke-width="3"/>
<circle cx="18.5" cy="70.5" r="2.5" fill="#C2C2C2"/>
</svg>
