<svg width="92" height="92" viewBox="0 0 92 92" fill="none" xmlns="http://www.w3.org/2000/svg">
<path d="M12.2188 1.4375V90.5625H79.7812V16.675L64.5438 1.4375H12.2188ZM65.4062 6.325L74.8937 15.8125H65.4062V6.325ZM15.0938 87.6875V4.3125H62.5312V18.6875H76.9062V87.6875H15.0938Z" fill="black"/>
<path d="M71.1562 55.3438H20.8438V58.2188H71.1562V55.3438Z" fill="black"/>
<path d="M71.1562 62.5312H20.8438V65.4062H71.1562V62.5312Z" fill="black"/>
<path opacity="0.3" d="M71.1562 69.7188H53.1875V72.5938H71.1562V69.7188Z" fill="#E90F0F"/>
<path d="M33.7813 32.9187V48.875H58.2188V32.9187L59.3688 34.0687L61.3813 32.0562L58.2188 28.8937V19.6219H51.75V22.3531L46 16.6031L30.6188 32.0562L32.6313 34.0687L33.7813 32.9187ZM54.625 29.325V22.4969H55.3438V29.7562V30.0437V46H36.6563V30.0437L46 20.7L54.625 29.325Z" fill="#E90F0F"/>
</svg>
