<svg width="67" height="89" viewBox="0 0 67 89" fill="none" xmlns="http://www.w3.org/2000/svg">
<path fill-rule="evenodd" clip-rule="evenodd" d="M38.2538 2.13061C37.842 1.90326 34.3613 0 33.2393 0C32.3512 0 29.9853 1.1924 28.8333 1.80232C28.518 1.90848 28.1877 2.01813 27.8443 2.13025C24.9836 3.06405 21.2497 4.15488 17.6727 4.82181C14.0695 5.49362 10.1868 5.91737 7.18776 6.17305C5.69213 6.30056 4.42448 6.38559 3.53212 6.43868C3.08608 6.46522 2.73418 6.48375 2.49486 6.49561C2.37522 6.50153 2.28375 6.50579 2.22276 6.50854L2.15444 6.51156L2.13797 6.51226L2.13425 6.51241L2.13359 6.51244L2.13354 6.51244L2.13347 6.51244L0.533588 6.57801L0.457234 8.17753L2.20524 8.26097C0.457234 8.17753 0.457219 8.17786 0.457195 8.17836L0.457106 8.18023L0.45678 8.18712L0.455557 8.21335L0.450935 8.31482C0.446933 8.40395 0.441149 8.53565 0.433944 8.70754C0.419536 9.05131 0.399446 9.55586 0.376573 10.2021C0.330828 11.4944 0.273933 13.3538 0.229088 15.6273C0.139432 20.1725 0.0977804 26.3807 0.29055 33.0253C0.483155 39.6641 0.910559 46.7691 1.76501 53.0987C2.61132 59.368 3.90221 65.095 5.92979 68.8319C11.0153 78.2048 21.2981 83.2156 33.0403 88.7064L33.1046 88.5689L33.1689 88.7064C44.9111 83.2156 55.194 78.2048 60.2794 68.8319C62.307 65.095 63.5979 59.368 64.4442 53.0987C65.2987 46.7691 65.7261 39.6641 65.9187 33.0253C66.1115 26.3807 66.0698 20.1725 65.9801 15.6273C65.9353 13.3538 65.8784 11.4944 65.8327 10.2021C65.8098 9.55586 65.7897 9.05131 65.7753 8.70754C65.7681 8.53565 65.7623 8.40395 65.7583 8.31482L65.7537 8.21335L65.7525 8.18712L65.7521 8.18023L65.752 8.17836C65.752 8.17786 65.752 8.17753 64.004 8.26097L65.752 8.17753L65.6756 6.57801L64.0758 6.51244L64.0757 6.51244L64.0756 6.51244L64.075 6.51241L64.0713 6.51226L64.0548 6.51156L63.9865 6.50854C63.9255 6.50579 63.834 6.50153 63.7144 6.49561C63.4751 6.48375 63.1232 6.46522 62.6771 6.43868C61.7848 6.38559 60.5171 6.30056 59.0215 6.17305C56.0225 5.91737 52.1397 5.49362 48.5366 4.82181C44.9602 4.15499 41.172 3.06477 38.2538 2.13061ZM32.5055 4.22493C32.6879 4.15851 32.8543 4.09731 33.0036 4.042C33.1598 4.09848 33.3347 4.16124 33.5268 4.22952C34.4171 4.5459 35.6799 4.98148 37.1758 5.4605C40.1576 6.4153 44.1079 7.5564 47.895 8.26252C51.6597 8.96445 55.671 9.4001 58.7242 9.6604C60.1735 9.78396 61.4143 9.86861 62.3203 9.92355C62.325 10.0506 62.3299 10.1848 62.3349 10.3259C62.38 11.6024 62.4364 13.4434 62.4808 15.6963C62.5697 20.2038 62.6108 26.3524 62.4202 32.9238C62.2293 39.5008 61.8072 46.4708 60.9757 52.6304C60.136 58.8503 58.9046 64.0269 57.2031 67.1628C52.9438 75.013 44.4058 79.552 33.1046 84.8707C21.8034 79.552 13.2655 75.013 9.00614 67.1628C7.30466 64.0269 6.07318 58.8503 5.23354 52.6304C4.40203 46.4708 3.97989 39.5008 3.78908 32.9238C3.59843 26.3524 3.63949 20.2038 3.72841 15.6963C3.77285 13.4434 3.8292 11.6024 3.87438 10.3259C3.87938 10.1848 3.88423 10.0506 3.88892 9.92355C4.79492 9.86861 6.03574 9.78396 7.48507 9.6604C10.5382 9.4001 14.5495 8.96445 18.3142 8.26252C22.105 7.55571 26.002 6.41338 28.9304 5.45747C30.3995 4.97791 31.6353 4.54179 32.5055 4.22493Z" fill="#6F6F6F"/>
<path d="M27.9698 45.5119L21.3705 38.9782L17.7639 42.5352L27.9954 52.6258L48.4584 32.4445L44.8262 28.8623L27.9698 45.5119Z" fill="#313131"/>
<path fill-rule="evenodd" clip-rule="evenodd" d="M32.7984 9.22827C33.3435 9.22827 34.5736 10.1095 35.5466 10.8814C35.9466 11.0189 36.3866 11.1671 36.8583 11.3213C39.0611 12.0416 41.9184 12.8813 44.6121 13.3941C47.3255 13.9107 50.252 14.2369 52.5151 14.4339C53.6433 14.5321 54.5994 14.5976 55.2723 14.6385C55.6086 14.6589 55.8739 14.6732 56.0541 14.6823C56.1442 14.6868 56.213 14.6901 56.2588 14.6922L56.31 14.6945L56.3222 14.695L56.3249 14.6952L56.3253 14.6952L56.3254 14.6952L57.6968 14.7526L57.761 16.1238L56.2626 16.1939C57.761 16.1238 57.761 16.1241 57.761 16.1245L57.7611 16.1259L57.7613 16.1313L57.7622 16.1516L57.7657 16.2301C57.7688 16.299 57.7731 16.4007 57.7786 16.5335C57.7895 16.799 57.8047 17.1885 57.822 17.6874C57.8566 18.6851 57.8996 20.1204 57.9335 21.8753C58.0012 25.3837 58.0327 30.1759 57.887 35.3052C57.8396 36.9743 57.7733 38.6818 57.6832 40.3946H54.679C54.7718 38.6593 54.8398 36.9227 54.8882 35.22C55.0322 30.1521 55.0012 25.41 54.934 21.9333C54.9005 20.1956 54.8579 18.7757 54.8238 17.7913L54.8176 17.616C54.1485 17.5735 53.2692 17.5109 52.2549 17.4226C49.9445 17.2215 46.9055 16.8846 44.0511 16.3412C41.1771 15.794 38.1828 14.9107 35.926 14.1728C34.7932 13.8024 33.8369 13.4656 33.1625 13.2209C33.0453 13.1784 32.9365 13.1386 32.8368 13.1019C32.7424 13.1375 32.6399 13.1759 32.5298 13.2169C31.8705 13.462 30.9344 13.7993 29.8218 14.1701C27.605 14.909 24.6507 15.7934 21.7734 16.3412C18.919 16.8846 15.8801 17.2215 13.5696 17.4226C12.5554 17.5109 11.676 17.5735 11.0069 17.616L11.0008 17.7913C10.9666 18.7757 10.9241 20.1956 10.8905 21.9333C10.8233 25.41 10.7923 30.1521 10.9363 35.22C11.0805 40.2928 11.3993 45.6661 12.0269 50.4131C12.6613 55.2113 13.5899 59.1854 14.8635 61.5822C18.0446 67.5685 24.4111 71.0453 32.9123 75.1335C41.4134 71.0453 47.7799 67.5685 50.961 61.5822C51.2758 60.9899 51.5694 60.3012 51.8428 59.5276H55.0013C54.5974 60.8299 54.1368 61.999 53.6102 62.9899C49.7391 70.2748 41.9115 74.163 33.047 78.3954L32.9123 78.1133L32.7776 78.3954C23.9131 74.163 16.0855 70.2748 12.2143 62.9899C10.6699 60.0835 9.69246 55.6446 9.05278 50.8063C8.40631 45.9166 8.08315 40.4298 7.93754 35.3052C7.7918 30.1759 7.82329 25.3837 7.89107 21.8753C7.92497 20.1204 7.96799 18.6851 8.00257 17.6874C8.01987 17.1885 8.03506 16.799 8.04596 16.5335C8.05141 16.4007 8.05578 16.299 8.05881 16.2301L8.06231 16.1516L8.06324 16.1313L8.06349 16.1259L8.06356 16.1245C8.06358 16.1241 8.06359 16.1238 9.56195 16.1939L8.06359 16.1238L8.1277 14.7526L9.49913 14.6952L9.49915 14.6952L9.49924 14.6952L9.49964 14.6952L9.50234 14.695L9.51457 14.6945L9.56577 14.6922C9.61156 14.6901 9.68038 14.6868 9.77047 14.6823C9.95068 14.6732 10.2159 14.6589 10.5522 14.6385C11.2251 14.5976 12.1813 14.5321 13.3094 14.4339C15.5725 14.2369 18.4991 13.9107 21.2124 13.3941C23.9029 12.8819 26.7152 12.0433 28.8732 11.324C29.2588 11.1955 29.6224 11.0712 29.9594 10.9537C30.9452 10.1657 32.2361 9.22827 32.7984 9.22827ZM55.9641 55.701C56.2145 54.4785 56.4328 53.195 56.6239 51.8745H53.5913C53.3865 53.2346 53.1557 54.5165 52.8976 55.701H55.9641ZM54.4309 44.2212H57.4396C57.3421 45.5128 57.2287 46.7932 57.0972 48.0479H54.0803C54.2149 46.7979 54.3311 45.5173 54.4309 44.2212Z" fill="#C2C2C2"/>
</svg>
