<svg width="92" height="92" viewBox="0 0 92 92" fill="none" xmlns="http://www.w3.org/2000/svg">
<path d="M4.3125 74.75H1.4375C1.4375 81.5062 6.9 86.9688 13.6562 86.9688H90.5625V12.2188H15.0938V1.4375H13.6562C6.9 1.4375 1.4375 6.9 1.4375 13.6562V74.75H4.3125C4.3125 69.575 8.48125 65.4062 13.6562 65.4062H15.0938V15.0938H87.6875V84.0938H13.6562C8.48125 84.0938 4.3125 79.925 4.3125 74.75ZM12.2188 62.6031C9.05625 62.9625 6.25313 64.5438 4.3125 66.8438V13.6562C4.3125 8.98438 7.7625 5.10312 12.2188 4.45625V62.6031Z" fill="black"/>
<path opacity="0.3" d="M74.0312 20.8438H65.4062V69.3594L69.7188 77.9844L74.0312 69.3594V20.8438ZM71.1562 23.7188V31.625H68.2812V23.7188H71.1562ZM69.7188 71.5156L68.2812 68.6406V34.5H71.1562V68.6406L69.7188 71.5156Z" fill="#E90F0F"/>
<path d="M30.1875 55.3437V58.2187H35.9375L32.3438 78.1281L35.1469 78.6312L38.8125 58.2187H47.4375L51.1031 78.6312L53.9062 78.1281L50.3125 58.2187H56.0625V55.3437H49.8094L48.1562 45.8562C50.3844 44.275 51.75 41.6156 51.75 38.8125C51.75 34.5719 48.6594 30.9781 44.5625 30.3313V20.8438H41.6875V30.3313C37.5906 31.05 34.5 34.5719 34.5 38.8125C34.5 41.6156 35.8656 44.2031 38.0938 45.8562L36.4406 55.3437H30.1875ZM40.3938 43.8437C38.525 42.8375 37.375 40.8969 37.375 38.8125C37.375 35.65 39.9625 33.0625 43.125 33.0625C46.2875 33.0625 48.875 35.65 48.875 38.8125C48.875 40.8969 47.725 42.8375 45.8562 43.8437L44.9219 44.3469L46.9344 55.3437H39.3156L41.2563 44.3469L40.3938 43.8437Z" fill="#E90F0F"/>
</svg>
