<svg width="92" height="92" viewBox="0 0 92 92" fill="none" xmlns="http://www.w3.org/2000/svg">
<path d="M90.5625 45.425V26.3062H86.9687V17.25V15.8125V1.4375H84.0937V15.8125H21.7781V26.3062H20.1969V29.1812H21.7781V39.675H36.2969V90.5625H39.1719V39.675H86.9687V29.1812H87.6875V42.9813L51.75 48.9469V63.5236V63.6812H47.5812V90.5625H58.8656V63.7531H54.625V63.6812V51.3906L90.5625 45.425ZM84.0937 36.8H24.6531V18.6875H84.0937V36.8ZM55.9187 87.6875H50.3844V66.6281H53.1516H55.9187V87.6875Z" fill="black"/>
<path d="M54.5875 65.2527L54.6062 65.2532H54.625H57.3656V89.0625H49.0812V65.1813H51.7312L54.5875 65.2527Z" stroke="#E90F0F" stroke-width="3"/>
<g opacity="0.3">
<rect width="2.875" height="2.875" transform="translate(26.2344 51.75)" fill="#E90F0F"/>
</g>
<g opacity="0.3">
<rect width="2.875" height="2.875" transform="translate(73.6719 1.4375)" fill="#E90F0F"/>
</g>
<g opacity="0.3">
<rect width="2.875" height="2.875" transform="translate(59.2969 8.625)" fill="#E90F0F"/>
</g>
<g opacity="0.3">
<rect width="2.875" height="2.875" transform="translate(30.5469 1.4375)" fill="#E90F0F"/>
</g>
<g opacity="0.3">
<rect width="2.875" height="2.875" transform="translate(14.0156 8.625)" fill="#E90F0F"/>
</g>
<g opacity="0.3">
<rect width="2.875" height="14.375" transform="translate(26.2344 76.1875)" fill="#E90F0F"/>
</g>
<g opacity="0.3">
<rect width="2.875" height="2.875" transform="translate(2.15625 37.375)" fill="#E90F0F"/>
</g>
<g opacity="0.3">
<rect width="2.875" height="2.875" transform="translate(2.15625 87.6875)" fill="#E90F0F"/>
</g>
<g opacity="0.3">
<rect width="2.875" height="14.375" transform="translate(2.15625 61.8125)" fill="#E90F0F"/>
</g>
<g opacity="0.3">
<rect width="2.875" height="14.375" transform="translate(2.15625 2.15625)" fill="#E90F0F"/>
</g>
<g opacity="0.3">
<rect width="2.875" height="2.875" transform="translate(13.8719 81.3625)" fill="#E90F0F"/>
</g>
<g opacity="0.3">
<rect width="2.875" height="14.375" transform="translate(13.8719 45.425)" fill="#E90F0F"/>
</g>
</svg>
